<mxfile host="app.diagrams.net" agent="Mozilla/5.0 (Windows NT 10.0; Win64; x64) AppleWebKit/537.36 (KHTML, like Gecko) Chrome/131.0.0.0 Safari/537.36" version="26.0.3">
  <diagram name="Page-1" id="N8i2UCWoSw69izzgNFbT">
    <mxGraphModel dx="2250" dy="795" grid="0" gridSize="10" guides="1" tooltips="1" connect="1" arrows="1" fold="1" page="1" pageScale="1" pageWidth="850" pageHeight="1100" background="#CCCCFF" math="0" shadow="0">
      <root>
        <mxCell id="0" />
        <mxCell id="1" parent="0" />
        <mxCell id="n3y6flI2zPdxHJmEXx_k-30" value="" style="edgeStyle=orthogonalEdgeStyle;rounded=1;orthogonalLoop=1;jettySize=auto;html=1;labelBackgroundColor=none;fontColor=default;strokeColor=#E07A5F;" edge="1" parent="1" source="n3y6flI2zPdxHJmEXx_k-21" target="n3y6flI2zPdxHJmEXx_k-29">
          <mxGeometry relative="1" as="geometry" />
        </mxCell>
        <mxCell id="n3y6flI2zPdxHJmEXx_k-21" value="&lt;b&gt;&lt;font style=&quot;font-size: 16px;&quot;&gt;Start&lt;/font&gt;&lt;/b&gt;" style="rounded=1;whiteSpace=wrap;html=1;labelBackgroundColor=none;fillColor=#F2CC8F;strokeColor=#E07A5F;fontColor=#393C56;" vertex="1" parent="1">
          <mxGeometry x="342.5" y="260" width="120" height="60" as="geometry" />
        </mxCell>
        <mxCell id="n3y6flI2zPdxHJmEXx_k-32" value="" style="edgeStyle=orthogonalEdgeStyle;rounded=1;orthogonalLoop=1;jettySize=auto;html=1;labelBackgroundColor=none;fontColor=default;strokeColor=#E07A5F;" edge="1" parent="1" source="n3y6flI2zPdxHJmEXx_k-29">
          <mxGeometry relative="1" as="geometry">
            <mxPoint x="302.5" y="430.0000000000001" as="targetPoint" />
          </mxGeometry>
        </mxCell>
        <mxCell id="n3y6flI2zPdxHJmEXx_k-34" value="" style="edgeStyle=orthogonalEdgeStyle;rounded=1;orthogonalLoop=1;jettySize=auto;html=1;labelBackgroundColor=none;fontColor=default;strokeColor=#E07A5F;" edge="1" parent="1" source="n3y6flI2zPdxHJmEXx_k-29">
          <mxGeometry relative="1" as="geometry">
            <mxPoint x="502.5" y="430.0000000000001" as="targetPoint" />
          </mxGeometry>
        </mxCell>
        <mxCell id="n3y6flI2zPdxHJmEXx_k-29" value="&lt;b&gt;&lt;font style=&quot;font-size: 16px;&quot;&gt;Customer Type&lt;/font&gt;&lt;/b&gt;" style="rhombus;whiteSpace=wrap;html=1;rounded=1;labelBackgroundColor=none;fillColor=#F2CC8F;strokeColor=#E07A5F;fontColor=#393C56;" vertex="1" parent="1">
          <mxGeometry x="332.5" y="410" width="140" height="120" as="geometry" />
        </mxCell>
        <mxCell id="n3y6flI2zPdxHJmEXx_k-48" value="" style="edgeStyle=orthogonalEdgeStyle;rounded=1;orthogonalLoop=1;jettySize=auto;html=1;labelBackgroundColor=none;fontColor=default;strokeColor=#E07A5F;" edge="1" parent="1" target="n3y6flI2zPdxHJmEXx_k-47">
          <mxGeometry relative="1" as="geometry">
            <mxPoint x="242.5" y="459.9999999999999" as="sourcePoint" />
          </mxGeometry>
        </mxCell>
        <mxCell id="n3y6flI2zPdxHJmEXx_k-70" value="" style="edgeStyle=orthogonalEdgeStyle;rounded=1;orthogonalLoop=1;jettySize=auto;html=1;labelBackgroundColor=none;fontColor=default;strokeColor=#E07A5F;" edge="1" parent="1" target="n3y6flI2zPdxHJmEXx_k-69">
          <mxGeometry relative="1" as="geometry">
            <mxPoint x="606.5" y="459.9999999999999" as="sourcePoint" />
          </mxGeometry>
        </mxCell>
        <mxCell id="n3y6flI2zPdxHJmEXx_k-50" value="" style="edgeStyle=orthogonalEdgeStyle;rounded=1;orthogonalLoop=1;jettySize=auto;html=1;labelBackgroundColor=none;fontColor=default;strokeColor=#E07A5F;" edge="1" parent="1" source="n3y6flI2zPdxHJmEXx_k-47" target="n3y6flI2zPdxHJmEXx_k-49">
          <mxGeometry relative="1" as="geometry" />
        </mxCell>
        <mxCell id="n3y6flI2zPdxHJmEXx_k-47" value="&lt;span style=&quot;font-family: sans-serif; font-size: medium; font-weight: 700; text-align: start; background-color: rgb(242, 204, 143);&quot;&gt;Customer Name *&lt;/span&gt;" style="rounded=1;whiteSpace=wrap;html=1;labelBackgroundColor=none;fillColor=#F2CC8F;strokeColor=#E07A5F;fontColor=#393C56;" vertex="1" parent="1">
          <mxGeometry x="182.5" y="540" width="120" height="60" as="geometry" />
        </mxCell>
        <mxCell id="n3y6flI2zPdxHJmEXx_k-52" value="" style="edgeStyle=orthogonalEdgeStyle;rounded=1;orthogonalLoop=1;jettySize=auto;html=1;labelBackgroundColor=none;fontColor=default;strokeColor=#E07A5F;" edge="1" parent="1" source="n3y6flI2zPdxHJmEXx_k-49" target="n3y6flI2zPdxHJmEXx_k-51">
          <mxGeometry relative="1" as="geometry" />
        </mxCell>
        <mxCell id="n3y6flI2zPdxHJmEXx_k-49" value="&lt;span style=&quot;font-family: sans-serif; font-size: medium; font-weight: 700; text-align: start; background-color: rgb(242, 204, 143);&quot;&gt;Connected Person Designation&lt;/span&gt;" style="rounded=1;whiteSpace=wrap;html=1;labelBackgroundColor=none;fillColor=#F2CC8F;strokeColor=#E07A5F;fontColor=#393C56;" vertex="1" parent="1">
          <mxGeometry x="182.5" y="680" width="120" height="60" as="geometry" />
        </mxCell>
        <mxCell id="n3y6flI2zPdxHJmEXx_k-54" value="" style="edgeStyle=orthogonalEdgeStyle;rounded=1;orthogonalLoop=1;jettySize=auto;html=1;labelBackgroundColor=none;fontColor=default;strokeColor=#E07A5F;" edge="1" parent="1" source="n3y6flI2zPdxHJmEXx_k-51" target="n3y6flI2zPdxHJmEXx_k-53">
          <mxGeometry relative="1" as="geometry" />
        </mxCell>
        <mxCell id="n3y6flI2zPdxHJmEXx_k-51" value="&lt;span style=&quot;font-family: sans-serif; font-size: medium; font-weight: 700; text-align: start; background-color: rgb(242, 204, 143);&quot;&gt;Connected Person Name *&lt;/span&gt;" style="rounded=1;whiteSpace=wrap;html=1;labelBackgroundColor=none;fillColor=#F2CC8F;strokeColor=#E07A5F;fontColor=#393C56;" vertex="1" parent="1">
          <mxGeometry x="182.5" y="820" width="120" height="60" as="geometry" />
        </mxCell>
        <mxCell id="n3y6flI2zPdxHJmEXx_k-56" value="" style="edgeStyle=orthogonalEdgeStyle;rounded=1;orthogonalLoop=1;jettySize=auto;html=1;labelBackgroundColor=none;fontColor=default;strokeColor=#E07A5F;" edge="1" parent="1" source="n3y6flI2zPdxHJmEXx_k-53">
          <mxGeometry relative="1" as="geometry">
            <mxPoint x="242.5" y="1100" as="targetPoint" />
          </mxGeometry>
        </mxCell>
        <mxCell id="n3y6flI2zPdxHJmEXx_k-53" value="&lt;span style=&quot;font-family: sans-serif; font-size: medium; font-weight: 700; text-align: start; background-color: rgb(242, 204, 143);&quot;&gt;Connected Person Phone No *&lt;/span&gt;" style="rounded=1;whiteSpace=wrap;html=1;labelBackgroundColor=none;fillColor=#F2CC8F;strokeColor=#E07A5F;fontColor=#393C56;" vertex="1" parent="1">
          <mxGeometry x="182.5" y="960" width="120" height="60" as="geometry" />
        </mxCell>
        <mxCell id="n3y6flI2zPdxHJmEXx_k-58" value="" style="edgeStyle=orthogonalEdgeStyle;rounded=1;orthogonalLoop=1;jettySize=auto;html=1;labelBackgroundColor=none;fontColor=default;strokeColor=#E07A5F;" edge="1" parent="1" target="n3y6flI2zPdxHJmEXx_k-57">
          <mxGeometry relative="1" as="geometry">
            <mxPoint x="242.5" y="1160" as="sourcePoint" />
          </mxGeometry>
        </mxCell>
        <mxCell id="n3y6flI2zPdxHJmEXx_k-60" value="" style="edgeStyle=orthogonalEdgeStyle;rounded=1;orthogonalLoop=1;jettySize=auto;html=1;labelBackgroundColor=none;fontColor=default;strokeColor=#E07A5F;" edge="1" parent="1" source="n3y6flI2zPdxHJmEXx_k-57" target="n3y6flI2zPdxHJmEXx_k-59">
          <mxGeometry relative="1" as="geometry" />
        </mxCell>
        <mxCell id="n3y6flI2zPdxHJmEXx_k-57" value="&lt;span style=&quot;font-family: sans-serif; font-size: medium; font-weight: 700; text-align: start; background-color: rgb(242, 204, 143);&quot;&gt;Connection Email ID&lt;/span&gt;" style="rounded=1;whiteSpace=wrap;html=1;labelBackgroundColor=none;fillColor=#F2CC8F;strokeColor=#E07A5F;fontColor=#393C56;" vertex="1" parent="1">
          <mxGeometry x="182.5" y="1100" width="120" height="60" as="geometry" />
        </mxCell>
        <mxCell id="n3y6flI2zPdxHJmEXx_k-62" value="" style="edgeStyle=orthogonalEdgeStyle;rounded=1;orthogonalLoop=1;jettySize=auto;html=1;labelBackgroundColor=none;fontColor=default;strokeColor=#E07A5F;" edge="1" parent="1" source="n3y6flI2zPdxHJmEXx_k-59" target="n3y6flI2zPdxHJmEXx_k-61">
          <mxGeometry relative="1" as="geometry" />
        </mxCell>
        <mxCell id="n3y6flI2zPdxHJmEXx_k-59" value="&lt;span style=&quot;font-family: sans-serif; font-size: medium; font-weight: 700; text-align: start; background-color: rgb(242, 204, 143);&quot;&gt;Locality&lt;/span&gt;" style="rounded=1;whiteSpace=wrap;html=1;labelBackgroundColor=none;fillColor=#F2CC8F;strokeColor=#E07A5F;fontColor=#393C56;" vertex="1" parent="1">
          <mxGeometry x="182.5" y="1240" width="120" height="60" as="geometry" />
        </mxCell>
        <mxCell id="n3y6flI2zPdxHJmEXx_k-64" value="" style="edgeStyle=orthogonalEdgeStyle;rounded=1;orthogonalLoop=1;jettySize=auto;html=1;labelBackgroundColor=none;fontColor=default;strokeColor=#E07A5F;" edge="1" parent="1" source="n3y6flI2zPdxHJmEXx_k-61" target="n3y6flI2zPdxHJmEXx_k-63">
          <mxGeometry relative="1" as="geometry" />
        </mxCell>
        <mxCell id="n3y6flI2zPdxHJmEXx_k-61" value="&lt;span style=&quot;font-family: sans-serif; font-size: medium; font-weight: 700; text-align: start; background-color: rgb(242, 204, 143);&quot;&gt;Locality&lt;/span&gt;" style="rounded=1;whiteSpace=wrap;html=1;labelBackgroundColor=none;fillColor=#F2CC8F;strokeColor=#E07A5F;fontColor=#393C56;" vertex="1" parent="1">
          <mxGeometry x="182.5" y="1380" width="120" height="60" as="geometry" />
        </mxCell>
        <mxCell id="n3y6flI2zPdxHJmEXx_k-78" value="" style="edgeStyle=orthogonalEdgeStyle;rounded=1;orthogonalLoop=1;jettySize=auto;html=1;labelBackgroundColor=none;fontColor=default;strokeColor=#E07A5F;" edge="1" parent="1" source="n3y6flI2zPdxHJmEXx_k-63" target="n3y6flI2zPdxHJmEXx_k-77">
          <mxGeometry relative="1" as="geometry" />
        </mxCell>
        <mxCell id="n3y6flI2zPdxHJmEXx_k-63" value="&lt;span style=&quot;font-family: sans-serif; font-size: medium; font-weight: 700; text-align: start; background-color: rgb(242, 204, 143);&quot;&gt;New_State *&lt;/span&gt;" style="rounded=1;whiteSpace=wrap;html=1;labelBackgroundColor=none;fillColor=#F2CC8F;strokeColor=#E07A5F;fontColor=#393C56;" vertex="1" parent="1">
          <mxGeometry x="182.5" y="1520" width="120" height="60" as="geometry" />
        </mxCell>
        <mxCell id="n3y6flI2zPdxHJmEXx_k-72" value="" style="edgeStyle=orthogonalEdgeStyle;rounded=1;orthogonalLoop=1;jettySize=auto;html=1;labelBackgroundColor=none;fontColor=default;strokeColor=#E07A5F;" edge="1" parent="1" source="n3y6flI2zPdxHJmEXx_k-69">
          <mxGeometry relative="1" as="geometry">
            <mxPoint x="606.5" y="680" as="targetPoint" />
          </mxGeometry>
        </mxCell>
        <mxCell id="n3y6flI2zPdxHJmEXx_k-141" value="" style="edgeStyle=elbowEdgeStyle;rounded=1;orthogonalLoop=1;jettySize=auto;elbow=vertical;html=1;labelBackgroundColor=none;fontColor=default;strokeColor=#E07A5F;" edge="1" parent="1" source="n3y6flI2zPdxHJmEXx_k-69" target="n3y6flI2zPdxHJmEXx_k-140">
          <mxGeometry relative="1" as="geometry" />
        </mxCell>
        <mxCell id="n3y6flI2zPdxHJmEXx_k-69" value="&lt;span style=&quot;font-family: sans-serif; font-size: medium; font-weight: 700; text-align: start; background-color: rgb(242, 204, 143);&quot;&gt;State&lt;/span&gt;" style="whiteSpace=wrap;html=1;rounded=1;labelBackgroundColor=none;fillColor=#F2CC8F;strokeColor=#E07A5F;fontColor=#393C56;" vertex="1" parent="1">
          <mxGeometry x="546.5" y="540" width="120" height="60" as="geometry" />
        </mxCell>
        <mxCell id="n3y6flI2zPdxHJmEXx_k-74" value="" style="edgeStyle=orthogonalEdgeStyle;rounded=1;orthogonalLoop=1;jettySize=auto;html=1;labelBackgroundColor=none;fontColor=default;strokeColor=#E07A5F;" edge="1" parent="1" target="n3y6flI2zPdxHJmEXx_k-73">
          <mxGeometry relative="1" as="geometry">
            <mxPoint x="606.5" y="740" as="sourcePoint" />
          </mxGeometry>
        </mxCell>
        <mxCell id="n3y6flI2zPdxHJmEXx_k-76" value="" style="edgeStyle=orthogonalEdgeStyle;rounded=1;orthogonalLoop=1;jettySize=auto;html=1;labelBackgroundColor=none;fontColor=default;strokeColor=#E07A5F;" edge="1" parent="1" source="n3y6flI2zPdxHJmEXx_k-73" target="n3y6flI2zPdxHJmEXx_k-75">
          <mxGeometry relative="1" as="geometry" />
        </mxCell>
        <mxCell id="n3y6flI2zPdxHJmEXx_k-73" value="&lt;span style=&quot;font-family: sans-serif; font-size: medium; font-weight: 700; text-align: start; background-color: rgb(242, 204, 143);&quot;&gt;Segment&lt;/span&gt;" style="whiteSpace=wrap;html=1;rounded=1;labelBackgroundColor=none;fillColor=#F2CC8F;strokeColor=#E07A5F;fontColor=#393C56;" vertex="1" parent="1">
          <mxGeometry x="546.5" y="820" width="120" height="60" as="geometry" />
        </mxCell>
        <mxCell id="n3y6flI2zPdxHJmEXx_k-143" value="" style="edgeStyle=elbowEdgeStyle;rounded=1;orthogonalLoop=1;jettySize=auto;elbow=vertical;html=1;labelBackgroundColor=none;fontColor=default;strokeColor=#E07A5F;" edge="1" parent="1" source="n3y6flI2zPdxHJmEXx_k-75" target="n3y6flI2zPdxHJmEXx_k-142">
          <mxGeometry relative="1" as="geometry" />
        </mxCell>
        <mxCell id="n3y6flI2zPdxHJmEXx_k-75" value="&lt;span style=&quot;font-family: sans-serif; font-size: medium; font-weight: 700; text-align: start; background-color: rgb(242, 204, 143);&quot;&gt;Customer Name *&lt;/span&gt;" style="whiteSpace=wrap;html=1;rounded=1;labelBackgroundColor=none;fillColor=#F2CC8F;strokeColor=#E07A5F;fontColor=#393C56;" vertex="1" parent="1">
          <mxGeometry x="546.5" y="960" width="120" height="60" as="geometry" />
        </mxCell>
        <mxCell id="n3y6flI2zPdxHJmEXx_k-81" value="" style="edgeStyle=orthogonalEdgeStyle;rounded=1;orthogonalLoop=1;jettySize=auto;html=1;labelBackgroundColor=none;fontColor=default;strokeColor=#E07A5F;" edge="1" parent="1" source="n3y6flI2zPdxHJmEXx_k-77" target="n3y6flI2zPdxHJmEXx_k-80">
          <mxGeometry relative="1" as="geometry" />
        </mxCell>
        <mxCell id="n3y6flI2zPdxHJmEXx_k-84" value="" style="edgeStyle=orthogonalEdgeStyle;rounded=1;orthogonalLoop=1;jettySize=auto;html=1;labelBackgroundColor=none;fontColor=default;strokeColor=#E07A5F;" edge="1" parent="1" source="n3y6flI2zPdxHJmEXx_k-77" target="n3y6flI2zPdxHJmEXx_k-83">
          <mxGeometry relative="1" as="geometry" />
        </mxCell>
        <mxCell id="n3y6flI2zPdxHJmEXx_k-77" value="&lt;span style=&quot;font-family: sans-serif; font-size: medium; font-weight: 700; text-align: start; background-color: rgb(242, 204, 143);&quot;&gt;New_City *&lt;/span&gt;" style="rhombus;whiteSpace=wrap;html=1;rounded=1;labelBackgroundColor=none;fillColor=#F2CC8F;strokeColor=#E07A5F;fontColor=#393C56;" vertex="1" parent="1">
          <mxGeometry x="187.5" y="1675" width="110" height="120" as="geometry" />
        </mxCell>
        <mxCell id="n3y6flI2zPdxHJmEXx_k-80" value="&lt;span style=&quot;&quot;&gt;&lt;br&gt;&lt;span style=&quot;color: rgb(0, 0, 0); font-family: sans-serif; font-size: medium; font-style: normal; font-variant-ligatures: normal; font-variant-caps: normal; font-weight: 700; letter-spacing: normal; orphans: 2; text-align: start; text-indent: 0px; text-transform: none; widows: 2; word-spacing: 0px; -webkit-text-stroke-width: 0px; white-space: normal; text-decoration-thickness: initial; text-decoration-style: initial; text-decoration-color: initial; float: none; display: inline !important;&quot;&gt;City Name *&lt;/span&gt;&lt;/span&gt;&lt;div&gt;&lt;br&gt;&lt;/div&gt;" style="rounded=1;whiteSpace=wrap;html=1;labelBackgroundColor=#F2CC8F;fillColor=#F2CC8F;strokeColor=#E07A5F;fontColor=#393C56;" vertex="1" parent="1">
          <mxGeometry x="-60" y="1705" width="120" height="60" as="geometry" />
        </mxCell>
        <mxCell id="n3y6flI2zPdxHJmEXx_k-82" value="&lt;b&gt;&lt;font style=&quot;font-size: 15px;&quot;&gt;Others&lt;/font&gt;&lt;/b&gt;" style="shape=callout;whiteSpace=wrap;html=1;perimeter=calloutPerimeter;labelBackgroundColor=none;fillColor=#F2CC8F;strokeColor=#E07A5F;fontColor=#393C56;rounded=1;" vertex="1" parent="1">
          <mxGeometry x="67.5" y="1650" width="120" height="80" as="geometry" />
        </mxCell>
        <mxCell id="n3y6flI2zPdxHJmEXx_k-93" value="" style="edgeStyle=elbowEdgeStyle;rounded=1;orthogonalLoop=1;jettySize=auto;elbow=vertical;html=1;labelBackgroundColor=none;fontColor=default;strokeColor=#E07A5F;" edge="1" parent="1" source="n3y6flI2zPdxHJmEXx_k-83" target="n3y6flI2zPdxHJmEXx_k-92">
          <mxGeometry relative="1" as="geometry" />
        </mxCell>
        <mxCell id="n3y6flI2zPdxHJmEXx_k-95" value="" style="edgeStyle=elbowEdgeStyle;rounded=1;orthogonalLoop=1;jettySize=auto;elbow=vertical;html=1;labelBackgroundColor=none;fontColor=default;strokeColor=#E07A5F;" edge="1" parent="1" source="n3y6flI2zPdxHJmEXx_k-83" target="n3y6flI2zPdxHJmEXx_k-94">
          <mxGeometry relative="1" as="geometry" />
        </mxCell>
        <mxCell id="n3y6flI2zPdxHJmEXx_k-83" value="&lt;span style=&quot;font-family: sans-serif; font-size: medium; font-weight: 700; text-align: start;&quot;&gt;Segment of New Customer *&lt;/span&gt;" style="rhombus;whiteSpace=wrap;html=1;rounded=1;labelBackgroundColor=none;fillColor=#F2CC8F;strokeColor=#E07A5F;fontColor=#393C56;" vertex="1" parent="1">
          <mxGeometry x="172.5" y="1900" width="140" height="165" as="geometry" />
        </mxCell>
        <mxCell id="n3y6flI2zPdxHJmEXx_k-157" value="" style="edgeStyle=elbowEdgeStyle;rounded=1;orthogonalLoop=1;jettySize=auto;elbow=vertical;html=1;entryX=0;entryY=0.5;entryDx=0;entryDy=0;labelBackgroundColor=none;fontColor=default;strokeColor=#E07A5F;" edge="1" parent="1" source="n3y6flI2zPdxHJmEXx_k-92" target="n3y6flI2zPdxHJmEXx_k-113">
          <mxGeometry relative="1" as="geometry">
            <mxPoint x="-113.75" y="2122.5" as="targetPoint" />
            <Array as="points">
              <mxPoint x="40" y="2490" />
            </Array>
          </mxGeometry>
        </mxCell>
        <mxCell id="n3y6flI2zPdxHJmEXx_k-92" value="&lt;b&gt;&lt;font style=&quot;font-size: 16px;&quot;&gt;DB&lt;/font&gt;&lt;/b&gt;" style="whiteSpace=wrap;html=1;rounded=1;labelBackgroundColor=none;fillColor=#F2CC8F;strokeColor=#E07A5F;fontColor=#393C56;" vertex="1" parent="1">
          <mxGeometry x="-180" y="1952.5" width="132.5" height="60" as="geometry" />
        </mxCell>
        <mxCell id="n3y6flI2zPdxHJmEXx_k-98" value="" style="edgeStyle=elbowEdgeStyle;rounded=1;orthogonalLoop=1;jettySize=auto;elbow=vertical;html=1;entryX=0;entryY=0.5;entryDx=0;entryDy=0;labelBackgroundColor=none;fontColor=default;strokeColor=#E07A5F;" edge="1" parent="1" source="n3y6flI2zPdxHJmEXx_k-94" target="n3y6flI2zPdxHJmEXx_k-97">
          <mxGeometry relative="1" as="geometry" />
        </mxCell>
        <mxCell id="n3y6flI2zPdxHJmEXx_k-94" value="&lt;b&gt;&lt;font style=&quot;font-size: 16px;&quot;&gt;Others&lt;/font&gt;&lt;/b&gt;" style="whiteSpace=wrap;html=1;rounded=1;labelBackgroundColor=none;fillColor=#F2CC8F;strokeColor=#E07A5F;fontColor=#393C56;" vertex="1" parent="1">
          <mxGeometry x="182.5" y="2180" width="120" height="60" as="geometry" />
        </mxCell>
        <mxCell id="n3y6flI2zPdxHJmEXx_k-96" value="" style="endArrow=classic;html=1;rounded=1;elbow=vertical;entryX=0.019;entryY=0.463;entryDx=0;entryDy=0;entryPerimeter=0;labelBackgroundColor=none;fontColor=default;strokeColor=#E07A5F;" edge="1" parent="1" target="n3y6flI2zPdxHJmEXx_k-83">
          <mxGeometry width="50" height="50" relative="1" as="geometry">
            <mxPoint y="1765" as="sourcePoint" />
            <mxPoint y="1940" as="targetPoint" />
          </mxGeometry>
        </mxCell>
        <mxCell id="n3y6flI2zPdxHJmEXx_k-155" value="" style="edgeStyle=elbowEdgeStyle;rounded=1;orthogonalLoop=1;jettySize=auto;elbow=vertical;html=1;entryX=0.355;entryY=1.001;entryDx=0;entryDy=0;entryPerimeter=0;exitX=0.5;exitY=0.167;exitDx=0;exitDy=0;exitPerimeter=0;labelBackgroundColor=none;fontColor=default;strokeColor=#E07A5F;" edge="1" parent="1" source="n3y6flI2zPdxHJmEXx_k-97" target="n3y6flI2zPdxHJmEXx_k-148">
          <mxGeometry relative="1" as="geometry">
            <mxPoint x="372.5" y="2180" as="targetPoint" />
            <Array as="points">
              <mxPoint x="510" y="1960" />
            </Array>
          </mxGeometry>
        </mxCell>
        <mxCell id="n3y6flI2zPdxHJmEXx_k-97" value="&lt;span style=&quot;font-family: sans-serif; font-size: medium; font-weight: 700; text-align: start;&quot;&gt;Customer Segment *&lt;/span&gt;" style="whiteSpace=wrap;html=1;rounded=1;labelBackgroundColor=none;fillColor=#F2CC8F;strokeColor=#E07A5F;fontColor=#393C56;" vertex="1" parent="1">
          <mxGeometry x="472.5" y="2120" width="120" height="60" as="geometry" />
        </mxCell>
        <mxCell id="n3y6flI2zPdxHJmEXx_k-105" value="" style="edgeStyle=elbowEdgeStyle;rounded=1;orthogonalLoop=1;jettySize=auto;elbow=vertical;html=1;exitX=1;exitY=0.5;exitDx=0;exitDy=0;labelBackgroundColor=none;fontColor=default;strokeColor=#E07A5F;" edge="1" parent="1" source="n3y6flI2zPdxHJmEXx_k-99" target="n3y6flI2zPdxHJmEXx_k-104">
          <mxGeometry relative="1" as="geometry" />
        </mxCell>
        <mxCell id="n3y6flI2zPdxHJmEXx_k-110" value="" style="edgeStyle=elbowEdgeStyle;rounded=1;orthogonalLoop=1;jettySize=auto;elbow=vertical;html=1;exitX=0;exitY=0.5;exitDx=0;exitDy=0;labelBackgroundColor=none;fontColor=default;strokeColor=#E07A5F;" edge="1" parent="1" source="n3y6flI2zPdxHJmEXx_k-99" target="n3y6flI2zPdxHJmEXx_k-109">
          <mxGeometry relative="1" as="geometry" />
        </mxCell>
        <mxCell id="n3y6flI2zPdxHJmEXx_k-99" value="&lt;span style=&quot;font-family: sans-serif; font-size: medium; font-weight: 700; text-align: start;&quot;&gt;Service *&lt;/span&gt;" style="rhombus;whiteSpace=wrap;html=1;rounded=1;labelBackgroundColor=none;fillColor=#F2CC8F;strokeColor=#E07A5F;fontColor=#393C56;" vertex="1" parent="1">
          <mxGeometry x="720" y="2050" width="140" height="165" as="geometry" />
        </mxCell>
        <mxCell id="n3y6flI2zPdxHJmEXx_k-112" value="" style="edgeStyle=elbowEdgeStyle;rounded=1;orthogonalLoop=1;jettySize=auto;elbow=vertical;html=1;labelBackgroundColor=none;fontColor=default;strokeColor=#E07A5F;" edge="1" parent="1" source="n3y6flI2zPdxHJmEXx_k-104" target="n3y6flI2zPdxHJmEXx_k-111">
          <mxGeometry relative="1" as="geometry" />
        </mxCell>
        <mxCell id="n3y6flI2zPdxHJmEXx_k-104" value="&lt;span style=&quot;font-family: sans-serif; font-size: medium; text-align: start;&quot;&gt;&lt;b style=&quot;&quot;&gt;Indirect&lt;/b&gt;&lt;/span&gt;" style="whiteSpace=wrap;html=1;rounded=1;labelBackgroundColor=none;fillColor=#F2CC8F;strokeColor=#E07A5F;fontColor=#393C56;" vertex="1" parent="1">
          <mxGeometry x="911" y="2258" width="120" height="60" as="geometry" />
        </mxCell>
        <mxCell id="n3y6flI2zPdxHJmEXx_k-115" value="" style="edgeStyle=elbowEdgeStyle;rounded=1;orthogonalLoop=1;jettySize=auto;elbow=vertical;html=1;labelBackgroundColor=none;fontColor=default;strokeColor=#E07A5F;" edge="1" parent="1" source="n3y6flI2zPdxHJmEXx_k-109" target="n3y6flI2zPdxHJmEXx_k-113">
          <mxGeometry relative="1" as="geometry" />
        </mxCell>
        <mxCell id="n3y6flI2zPdxHJmEXx_k-109" value="&lt;span style=&quot;font-family: sans-serif; font-size: medium; text-align: start;&quot;&gt;&lt;b style=&quot;&quot;&gt;Direct&lt;/b&gt;&lt;/span&gt;" style="whiteSpace=wrap;html=1;rounded=1;labelBackgroundColor=none;fillColor=#F2CC8F;strokeColor=#E07A5F;fontColor=#393C56;" vertex="1" parent="1">
          <mxGeometry x="543.75" y="2290" width="120" height="60" as="geometry" />
        </mxCell>
        <mxCell id="n3y6flI2zPdxHJmEXx_k-111" value="&lt;span style=&quot;font-family: sans-serif; font-size: medium; font-weight: 700; text-align: start;&quot;&gt;Distributor Name *&lt;/span&gt;" style="whiteSpace=wrap;html=1;rounded=1;labelBackgroundColor=none;fillColor=#F2CC8F;strokeColor=#E07A5F;fontColor=#393C56;" vertex="1" parent="1">
          <mxGeometry x="970" y="2450" width="120" height="60" as="geometry" />
        </mxCell>
        <mxCell id="n3y6flI2zPdxHJmEXx_k-119" value="" style="edgeStyle=elbowEdgeStyle;rounded=1;orthogonalLoop=1;jettySize=auto;elbow=vertical;html=1;labelBackgroundColor=none;fontColor=default;strokeColor=#E07A5F;" edge="1" parent="1" source="n3y6flI2zPdxHJmEXx_k-113" target="n3y6flI2zPdxHJmEXx_k-118">
          <mxGeometry relative="1" as="geometry" />
        </mxCell>
        <mxCell id="n3y6flI2zPdxHJmEXx_k-113" value="&lt;h2 style=&quot;color: rgb(51, 51, 51); font-family: sans-serif; text-align: start;&quot;&gt;FPR Details&lt;/h2&gt;" style="shape=process;whiteSpace=wrap;html=1;backgroundOutline=1;labelBackgroundColor=none;fillColor=#F2CC8F;strokeColor=#E07A5F;fontColor=#393C56;rounded=1;" vertex="1" parent="1">
          <mxGeometry x="372.5" y="2430" width="180" height="100" as="geometry" />
        </mxCell>
        <mxCell id="n3y6flI2zPdxHJmEXx_k-121" value="" style="edgeStyle=elbowEdgeStyle;rounded=1;orthogonalLoop=1;jettySize=auto;elbow=vertical;html=1;labelBackgroundColor=none;fontColor=default;strokeColor=#E07A5F;" edge="1" parent="1" source="n3y6flI2zPdxHJmEXx_k-118" target="n3y6flI2zPdxHJmEXx_k-120">
          <mxGeometry relative="1" as="geometry" />
        </mxCell>
        <mxCell id="n3y6flI2zPdxHJmEXx_k-118" value="&lt;span style=&quot;font-family: sans-serif; font-size: medium; font-weight: 700; text-align: start;&quot;&gt;FPR Name *&lt;/span&gt;" style="whiteSpace=wrap;html=1;labelBackgroundColor=#F2CC8F;fillColor=#F2CC8F;strokeColor=#E07A5F;fontColor=#393C56;rounded=1;" vertex="1" parent="1">
          <mxGeometry x="402.5" y="2640" width="120" height="60" as="geometry" />
        </mxCell>
        <mxCell id="n3y6flI2zPdxHJmEXx_k-123" value="" style="edgeStyle=elbowEdgeStyle;rounded=1;orthogonalLoop=1;jettySize=auto;elbow=vertical;html=1;labelBackgroundColor=none;fontColor=default;strokeColor=#E07A5F;" edge="1" parent="1" source="n3y6flI2zPdxHJmEXx_k-120" target="n3y6flI2zPdxHJmEXx_k-122">
          <mxGeometry relative="1" as="geometry" />
        </mxCell>
        <mxCell id="n3y6flI2zPdxHJmEXx_k-120" value="&lt;span style=&quot;font-family: sans-serif; font-size: medium; font-weight: 700; text-align: start;&quot;&gt;FPR Phone&lt;/span&gt;" style="whiteSpace=wrap;html=1;labelBackgroundColor=#F2CC8F;fillColor=#F2CC8F;strokeColor=#E07A5F;fontColor=#393C56;rounded=1;" vertex="1" parent="1">
          <mxGeometry x="402.5" y="2780" width="120" height="60" as="geometry" />
        </mxCell>
        <mxCell id="n3y6flI2zPdxHJmEXx_k-127" value="" style="edgeStyle=elbowEdgeStyle;rounded=1;orthogonalLoop=1;jettySize=auto;elbow=vertical;html=1;labelBackgroundColor=none;fontColor=default;strokeColor=#E07A5F;" edge="1" parent="1" source="n3y6flI2zPdxHJmEXx_k-122" target="n3y6flI2zPdxHJmEXx_k-126">
          <mxGeometry relative="1" as="geometry" />
        </mxCell>
        <mxCell id="n3y6flI2zPdxHJmEXx_k-122" value="&lt;span style=&quot;font-family: sans-serif; font-size: medium; font-weight: 700; text-align: start;&quot;&gt;FPR Email ID&lt;/span&gt;" style="whiteSpace=wrap;html=1;labelBackgroundColor=#F2CC8F;fillColor=#F2CC8F;strokeColor=#E07A5F;fontColor=#393C56;rounded=1;" vertex="1" parent="1">
          <mxGeometry x="402.5" y="2920" width="120" height="60" as="geometry" />
        </mxCell>
        <mxCell id="n3y6flI2zPdxHJmEXx_k-129" value="" style="edgeStyle=elbowEdgeStyle;rounded=1;orthogonalLoop=1;jettySize=auto;elbow=vertical;html=1;labelBackgroundColor=none;fontColor=default;strokeColor=#E07A5F;" edge="1" parent="1" source="n3y6flI2zPdxHJmEXx_k-126" target="n3y6flI2zPdxHJmEXx_k-128">
          <mxGeometry relative="1" as="geometry" />
        </mxCell>
        <mxCell id="n3y6flI2zPdxHJmEXx_k-126" value="&lt;h2 style=&quot;color: rgb(51, 51, 51); font-family: sans-serif; text-align: start;&quot;&gt;Visit Details&lt;/h2&gt;" style="shape=process;whiteSpace=wrap;html=1;backgroundOutline=1;labelBackgroundColor=none;fillColor=#F2CC8F;strokeColor=#E07A5F;fontColor=#393C56;rounded=1;" vertex="1" parent="1">
          <mxGeometry x="372.5" y="3100" width="180" height="60" as="geometry" />
        </mxCell>
        <mxCell id="n3y6flI2zPdxHJmEXx_k-131" value="" style="edgeStyle=elbowEdgeStyle;rounded=1;orthogonalLoop=1;jettySize=auto;elbow=vertical;html=1;labelBackgroundColor=none;fontColor=default;strokeColor=#E07A5F;" edge="1" parent="1" source="n3y6flI2zPdxHJmEXx_k-128" target="n3y6flI2zPdxHJmEXx_k-130">
          <mxGeometry relative="1" as="geometry" />
        </mxCell>
        <mxCell id="n3y6flI2zPdxHJmEXx_k-128" value="&lt;font style=&quot;font-size: 16px;&quot;&gt;&lt;b&gt;Oil Type (Checkbox)&lt;/b&gt;&lt;/font&gt;" style="whiteSpace=wrap;html=1;labelBackgroundColor=none;fillColor=#F2CC8F;strokeColor=#E07A5F;fontColor=#393C56;rounded=1;" vertex="1" parent="1">
          <mxGeometry x="402.5" y="3240" width="120" height="60" as="geometry" />
        </mxCell>
        <mxCell id="n3y6flI2zPdxHJmEXx_k-133" value="" style="edgeStyle=elbowEdgeStyle;rounded=1;orthogonalLoop=1;jettySize=auto;elbow=vertical;html=1;labelBackgroundColor=none;fontColor=default;strokeColor=#E07A5F;" edge="1" parent="1" source="n3y6flI2zPdxHJmEXx_k-130" target="n3y6flI2zPdxHJmEXx_k-132">
          <mxGeometry relative="1" as="geometry" />
        </mxCell>
        <mxCell id="n3y6flI2zPdxHJmEXx_k-130" value="&lt;span style=&quot;font-family: sans-serif; font-size: medium; font-weight: 700; text-align: start;&quot;&gt;Status remark for Oil&lt;/span&gt;" style="whiteSpace=wrap;html=1;labelBackgroundColor=#F2CC8F;fillColor=#F2CC8F;strokeColor=#E07A5F;fontColor=#393C56;rounded=1;" vertex="1" parent="1">
          <mxGeometry x="402.5" y="3380" width="120" height="60" as="geometry" />
        </mxCell>
        <mxCell id="n3y6flI2zPdxHJmEXx_k-135" value="" style="edgeStyle=elbowEdgeStyle;rounded=1;orthogonalLoop=1;jettySize=auto;elbow=vertical;html=1;labelBackgroundColor=none;fontColor=default;strokeColor=#E07A5F;" edge="1" parent="1" source="n3y6flI2zPdxHJmEXx_k-132" target="n3y6flI2zPdxHJmEXx_k-134">
          <mxGeometry relative="1" as="geometry" />
        </mxCell>
        <mxCell id="n3y6flI2zPdxHJmEXx_k-132" value="&lt;font style=&quot;font-size: 16px;&quot;&gt;&lt;b&gt;Food Type (Checkbox)&lt;/b&gt;&lt;/font&gt;" style="whiteSpace=wrap;html=1;labelBackgroundColor=none;fillColor=#F2CC8F;strokeColor=#E07A5F;fontColor=#393C56;rounded=1;" vertex="1" parent="1">
          <mxGeometry x="402.5" y="3520" width="120" height="60" as="geometry" />
        </mxCell>
        <mxCell id="n3y6flI2zPdxHJmEXx_k-137" value="" style="edgeStyle=elbowEdgeStyle;rounded=1;orthogonalLoop=1;jettySize=auto;elbow=vertical;html=1;labelBackgroundColor=none;fontColor=default;strokeColor=#E07A5F;" edge="1" parent="1" source="n3y6flI2zPdxHJmEXx_k-134" target="n3y6flI2zPdxHJmEXx_k-136">
          <mxGeometry relative="1" as="geometry" />
        </mxCell>
        <mxCell id="n3y6flI2zPdxHJmEXx_k-134" value="&lt;span style=&quot;font-family: sans-serif; font-size: medium; font-weight: 700; text-align: start;&quot;&gt;Status remark for Food&lt;/span&gt;" style="whiteSpace=wrap;html=1;labelBackgroundColor=#F2CC8F;fillColor=#F2CC8F;strokeColor=#E07A5F;fontColor=#393C56;rounded=1;" vertex="1" parent="1">
          <mxGeometry x="402.5" y="3660" width="120" height="60" as="geometry" />
        </mxCell>
        <mxCell id="n3y6flI2zPdxHJmEXx_k-159" value="" style="edgeStyle=elbowEdgeStyle;rounded=1;orthogonalLoop=1;jettySize=auto;elbow=vertical;html=1;labelBackgroundColor=none;fontColor=default;strokeColor=#E07A5F;" edge="1" parent="1" source="n3y6flI2zPdxHJmEXx_k-136" target="n3y6flI2zPdxHJmEXx_k-158">
          <mxGeometry relative="1" as="geometry" />
        </mxCell>
        <mxCell id="n3y6flI2zPdxHJmEXx_k-136" value="&lt;h2 style=&quot;color: rgb(51, 51, 51); font-family: sans-serif; text-align: start;&quot;&gt;Upload Image&lt;/h2&gt;" style="shape=process;whiteSpace=wrap;html=1;backgroundOutline=1;labelBackgroundColor=none;fillColor=#F2CC8F;strokeColor=#E07A5F;fontColor=#393C56;rounded=1;" vertex="1" parent="1">
          <mxGeometry x="381.25" y="3860" width="162.5" height="60" as="geometry" />
        </mxCell>
        <mxCell id="n3y6flI2zPdxHJmEXx_k-138" value="&lt;h2 style=&quot;color: rgb(51, 51, 51); font-family: sans-serif; text-align: start;&quot;&gt;New Customer&lt;/h2&gt;" style="shape=process;whiteSpace=wrap;html=1;backgroundOutline=1;labelBackgroundColor=none;fillColor=#F2CC8F;strokeColor=#E07A5F;fontColor=#393C56;rounded=1;" vertex="1" parent="1">
          <mxGeometry x="130" y="400" width="172.5" height="60" as="geometry" />
        </mxCell>
        <mxCell id="n3y6flI2zPdxHJmEXx_k-139" value="&lt;h2 style=&quot;color: rgb(51, 51, 51); font-family: sans-serif; text-align: start;&quot;&gt;Existing Customer&lt;/h2&gt;" style="shape=process;whiteSpace=wrap;html=1;backgroundOutline=1;labelBackgroundColor=none;fillColor=#F2CC8F;strokeColor=#E07A5F;fontColor=#393C56;rounded=1;" vertex="1" parent="1">
          <mxGeometry x="502.5" y="400" width="217.5" height="60" as="geometry" />
        </mxCell>
        <mxCell id="n3y6flI2zPdxHJmEXx_k-140" value="&lt;span style=&quot;font-family: sans-serif; font-size: medium; font-weight: 700; text-align: start; background-color: rgb(242, 204, 143);&quot;&gt;City&lt;/span&gt;" style="whiteSpace=wrap;html=1;rounded=1;labelBackgroundColor=none;fillColor=#F2CC8F;strokeColor=#E07A5F;fontColor=#393C56;" vertex="1" parent="1">
          <mxGeometry x="546.5" y="680" width="120" height="60" as="geometry" />
        </mxCell>
        <mxCell id="n3y6flI2zPdxHJmEXx_k-145" value="" style="edgeStyle=elbowEdgeStyle;rounded=1;orthogonalLoop=1;jettySize=auto;elbow=vertical;html=1;labelBackgroundColor=none;fontColor=default;strokeColor=#E07A5F;" edge="1" parent="1" source="n3y6flI2zPdxHJmEXx_k-142" target="n3y6flI2zPdxHJmEXx_k-144">
          <mxGeometry relative="1" as="geometry" />
        </mxCell>
        <mxCell id="n3y6flI2zPdxHJmEXx_k-142" value="&lt;h2 style=&quot;color: rgb(51, 51, 51); font-family: sans-serif; text-align: start;&quot;&gt;Customer Status&lt;/h2&gt;" style="shape=process;whiteSpace=wrap;html=1;backgroundOutline=1;labelBackgroundColor=none;fillColor=#F2CC8F;strokeColor=#E07A5F;fontColor=#393C56;rounded=1;" vertex="1" parent="1">
          <mxGeometry x="504.75" y="1120" width="203.5" height="60" as="geometry" />
        </mxCell>
        <mxCell id="n3y6flI2zPdxHJmEXx_k-147" value="" style="edgeStyle=elbowEdgeStyle;rounded=1;orthogonalLoop=1;jettySize=auto;elbow=vertical;html=1;labelBackgroundColor=none;fontColor=default;strokeColor=#E07A5F;" edge="1" parent="1" source="n3y6flI2zPdxHJmEXx_k-144" target="n3y6flI2zPdxHJmEXx_k-146">
          <mxGeometry relative="1" as="geometry" />
        </mxCell>
        <mxCell id="n3y6flI2zPdxHJmEXx_k-144" value="&lt;span style=&quot;font-family: sans-serif; font-size: medium; font-weight: 700; text-align: start; background-color: rgb(242, 204, 143);&quot;&gt;Business Status&lt;/span&gt;" style="whiteSpace=wrap;html=1;labelBackgroundColor=none;fillColor=#F2CC8F;strokeColor=#E07A5F;fontColor=#393C56;rounded=1;" vertex="1" parent="1">
          <mxGeometry x="546.5" y="1260" width="120" height="60" as="geometry" />
        </mxCell>
        <mxCell id="n3y6flI2zPdxHJmEXx_k-149" value="" style="edgeStyle=elbowEdgeStyle;rounded=1;orthogonalLoop=1;jettySize=auto;elbow=vertical;html=1;labelBackgroundColor=none;fontColor=default;strokeColor=#E07A5F;" edge="1" parent="1" source="n3y6flI2zPdxHJmEXx_k-146" target="n3y6flI2zPdxHJmEXx_k-148">
          <mxGeometry relative="1" as="geometry" />
        </mxCell>
        <mxCell id="n3y6flI2zPdxHJmEXx_k-146" value="&lt;span style=&quot;font-family: sans-serif; font-size: medium; font-weight: 700; text-align: start; background-color: rgb(242, 204, 143);&quot;&gt;Sub Status *&lt;/span&gt;" style="whiteSpace=wrap;html=1;labelBackgroundColor=none;fillColor=#F2CC8F;strokeColor=#E07A5F;fontColor=#393C56;rounded=1;" vertex="1" parent="1">
          <mxGeometry x="546.5" y="1400" width="120" height="60" as="geometry" />
        </mxCell>
        <mxCell id="n3y6flI2zPdxHJmEXx_k-152" value="" style="edgeStyle=elbowEdgeStyle;rounded=1;orthogonalLoop=1;jettySize=auto;elbow=vertical;html=1;labelBackgroundColor=none;fontColor=default;strokeColor=#E07A5F;" edge="1" parent="1" source="n3y6flI2zPdxHJmEXx_k-148" target="n3y6flI2zPdxHJmEXx_k-99">
          <mxGeometry relative="1" as="geometry" />
        </mxCell>
        <mxCell id="n3y6flI2zPdxHJmEXx_k-148" value="&lt;h2 style=&quot;color: rgb(51, 51, 51); font-family: sans-serif; text-align: start;&quot;&gt;Direct or Indirect&lt;/h2&gt;" style="shape=process;whiteSpace=wrap;html=1;backgroundOutline=1;labelBackgroundColor=none;fillColor=#F2CC8F;strokeColor=#E07A5F;fontColor=#393C56;rounded=1;" vertex="1" parent="1">
          <mxGeometry x="496.5" y="1795" width="220" height="60" as="geometry" />
        </mxCell>
        <mxCell id="n3y6flI2zPdxHJmEXx_k-161" value="" style="edgeStyle=elbowEdgeStyle;rounded=1;orthogonalLoop=1;jettySize=auto;elbow=vertical;html=1;labelBackgroundColor=none;fontColor=default;strokeColor=#E07A5F;" edge="1" parent="1" source="n3y6flI2zPdxHJmEXx_k-158">
          <mxGeometry relative="1" as="geometry">
            <mxPoint x="462.5" y="4140" as="targetPoint" />
          </mxGeometry>
        </mxCell>
        <mxCell id="n3y6flI2zPdxHJmEXx_k-158" value="&lt;h2 style=&quot;color: rgb(51, 51, 51); font-family: sans-serif; text-align: start;&quot;&gt;Submit&lt;/h2&gt;" style="shape=process;whiteSpace=wrap;html=1;backgroundOutline=1;labelBackgroundColor=none;fillColor=#F2CC8F;strokeColor=#E07A5F;fontColor=#393C56;rounded=1;" vertex="1" parent="1">
          <mxGeometry x="381.25" y="4000" width="162.5" height="60" as="geometry" />
        </mxCell>
        <mxCell id="n3y6flI2zPdxHJmEXx_k-162" value="&lt;b&gt;&lt;font style=&quot;font-size: 16px;&quot;&gt;END&lt;/font&gt;&lt;/b&gt;" style="rounded=1;whiteSpace=wrap;html=1;labelBackgroundColor=none;fillColor=#F2CC8F;strokeColor=#E07A5F;fontColor=#393C56;" vertex="1" parent="1">
          <mxGeometry x="402.5" y="4140" width="120" height="60" as="geometry" />
        </mxCell>
        <mxCell id="n3y6flI2zPdxHJmEXx_k-163" value="" style="endArrow=classic;html=1;rounded=1;elbow=vertical;exitX=0.982;exitY=0.485;exitDx=0;exitDy=0;exitPerimeter=0;entryX=0;entryY=0.75;entryDx=0;entryDy=0;labelBackgroundColor=none;fontColor=default;strokeColor=#E07A5F;" edge="1" parent="1" source="n3y6flI2zPdxHJmEXx_k-83" target="n3y6flI2zPdxHJmEXx_k-148">
          <mxGeometry width="50" height="50" relative="1" as="geometry">
            <mxPoint x="302.5" y="1990" as="sourcePoint" />
            <mxPoint x="510" y="1970" as="targetPoint" />
          </mxGeometry>
        </mxCell>
        <mxCell id="n3y6flI2zPdxHJmEXx_k-164" value="" style="endArrow=classic;html=1;rounded=1;elbow=vertical;exitX=0;exitY=0.5;exitDx=0;exitDy=0;entryX=1;entryY=0.5;entryDx=0;entryDy=0;labelBackgroundColor=none;fontColor=default;strokeColor=#E07A5F;" edge="1" parent="1" source="n3y6flI2zPdxHJmEXx_k-111" target="n3y6flI2zPdxHJmEXx_k-113">
          <mxGeometry width="50" height="50" relative="1" as="geometry">
            <mxPoint x="540" y="2560" as="sourcePoint" />
            <mxPoint x="590" y="2510" as="targetPoint" />
          </mxGeometry>
        </mxCell>
      </root>
    </mxGraphModel>
  </diagram>
</mxfile>
